# xmcd CD database file
# Generated: Fre Sep 27 22:10:05 2002 by KSCD
# 
# Track frame offsets:
#       150
#       28245
#       46268
#       81612
#       100399
#       125818
#       152007
#       185849
#       208333
#       232359
#       260117
#       287840
#       306798
#       330060
#
# Disc length: 4643 seconds
#
# Revision: 1
# Processed by: cddbd v1.4PL0 Copyright (c) Steve Scherf et al.
# Submitted via: Kscd 1.3.3
#
DISCID=dc12210e
DTITLE=Nick Cave and the Bad Seeds - Nick Cave
DYEAR=1900
DGENRE=
TTITLE0=As I set Sadly by the Side
TTITLE1=And no more shall we part
TTITLE2=Hallelujah
TTITLE3=Love Letter
TTITLE4=Fifteen Feet of Pure Snow
TTITLE5=God is in the House
TTITLE6=Oh my Lord
TTITLE7=Sweethard Come
TTITLE8=The Sorrowful Wife
TTITLE9=We come along this road
TTITLE10=Darker with the day
TTITLE11=Gates to the Garden
TTITLE12=Grief came riding
TTITLE13=Bless His Everloving Heart
EXTD=
EXTT0=
EXTT1=
EXTT2=
EXTT3=
EXTT4=
EXTT5=
EXTT6=
EXTT7=
EXTT8=
EXTT9=
EXTT10=
EXTT11=
EXTT12=
EXTT13=
PLAYORDER=
